<svg width="2090" height="564" viewBox="0 0 2090 564" fill="none" xmlns="http://www.w3.org/2000/svg">
<path d="M96.1089 155.273H217.393V187.971H176.485V332.446H217.393V365H96.1089V332.446H136.009V187.971H96.1089V155.273ZM265.792 365V209.146H302.09L304.539 230.752C306.556 227.871 308.764 225.23 311.165 222.83C313.566 220.429 316.111 218.268 318.799 216.348C323.409 213.083 328.45 210.586 333.924 208.857C339.397 207.129 345.207 206.265 351.353 206.265C359.227 206.265 366.43 207.417 372.959 209.722C379.489 212.026 385.155 215.675 389.957 220.669C394.662 225.758 398.311 232.288 400.904 240.259C403.593 248.133 404.937 257.736 404.937 269.067V365H364.893V269.644C364.893 263.498 364.173 258.456 362.732 254.519C361.388 250.486 359.419 247.317 356.827 245.012C354.234 242.708 351.113 241.123 347.464 240.259C343.815 239.299 339.686 238.818 335.076 238.818C331.235 238.818 327.682 239.25 324.417 240.115C321.248 240.979 318.415 242.275 315.918 244.004C313.902 245.252 312.077 246.741 310.445 248.469C308.812 250.198 307.324 252.118 305.979 254.231V365H265.792ZM543.506 322.219C543.506 319.819 542.93 317.706 541.778 315.881C540.722 314.057 538.801 312.328 536.016 310.696C533.135 309.159 529.342 307.719 524.637 306.375C519.931 305.03 513.978 303.686 506.775 302.341C497.653 300.517 489.298 298.26 481.712 295.571C474.222 292.786 467.788 289.425 462.41 285.488C457.033 281.647 452.807 277.182 449.734 272.092C446.757 267.003 445.269 261.145 445.269 254.519C445.269 248.085 446.806 241.939 449.878 236.082C452.951 230.224 457.369 225.086 463.13 220.669C468.892 216.252 475.902 212.747 484.161 210.154C492.419 207.561 501.734 206.265 512.105 206.265C522.956 206.265 532.703 207.561 541.346 210.154C549.988 212.651 557.334 216.108 563.384 220.525C569.338 225.038 573.899 230.368 577.068 236.514C580.237 242.66 581.822 249.333 581.822 256.536H541.778C541.778 253.943 541.346 251.542 540.481 249.333C539.617 247.029 538.321 244.964 536.592 243.14C534.192 240.739 530.927 238.818 526.797 237.378C522.764 235.938 517.867 235.217 512.105 235.217C507.208 235.217 502.934 235.697 499.285 236.658C495.636 237.618 492.659 238.962 490.354 240.691C488.242 242.227 486.609 244.052 485.457 246.165C484.401 248.181 483.873 250.342 483.873 252.646C483.873 254.951 484.353 257.112 485.313 259.128C486.273 261.049 488.002 262.778 490.499 264.314C492.899 265.946 496.212 267.435 500.438 268.779C504.663 270.028 510.04 271.132 516.57 272.092C525.981 273.629 534.72 275.597 542.786 277.998C550.853 280.399 557.815 283.472 563.672 287.217C569.53 291.058 574.091 295.715 577.356 301.189C580.717 306.567 582.398 313 582.398 320.491C582.398 327.405 580.717 333.791 577.356 339.648C574.091 345.41 569.434 350.404 563.384 354.629C557.238 358.854 549.844 362.167 541.202 364.568C532.559 366.873 522.908 368.025 512.249 368.025C500.534 368.025 490.162 366.488 481.136 363.416C472.205 360.343 464.715 356.309 458.665 351.316C452.615 346.418 448.006 340.849 444.837 334.607C441.764 328.269 440.228 321.931 440.228 315.593H478.399C478.687 319.819 479.839 323.468 481.856 326.541C483.873 329.517 486.465 331.918 489.634 333.743C492.803 335.663 496.404 337.056 500.438 337.92C504.567 338.784 508.792 339.216 513.113 339.216C518.299 339.216 522.812 338.784 526.653 337.92C530.59 336.96 533.807 335.711 536.304 334.175C538.705 332.638 540.481 330.862 541.634 328.845C542.882 326.829 543.506 324.62 543.506 322.219ZM693.599 170.974V209.146H751.792V238.674H693.599V305.654C693.599 311.32 694.223 316.073 695.472 319.915C696.816 323.66 698.689 326.637 701.089 328.845C703.49 331.15 706.371 332.782 709.732 333.743C713.189 334.703 717.03 335.183 721.255 335.183C724.328 335.183 727.449 335.039 730.618 334.751C733.883 334.463 737.004 334.079 739.981 333.599C742.862 333.215 745.551 332.782 748.047 332.302C750.64 331.822 752.849 331.342 754.673 330.862L758.562 358.374C755.778 360.007 752.513 361.447 748.768 362.695C745.022 363.848 741.037 364.808 736.812 365.576C732.587 366.344 728.169 366.921 723.56 367.305C719.047 367.785 714.581 368.025 710.164 368.025C701.618 368.025 693.839 366.921 686.829 364.712C679.915 362.407 674.009 358.854 669.112 354.053C664.118 349.347 660.277 343.346 657.588 336.047C654.9 328.653 653.555 319.819 653.555 309.543V238.674H617.977V209.146H653.555V170.974H693.599ZM894.683 365C893.723 363.079 892.907 360.871 892.234 358.374C891.562 355.877 890.986 353.236 890.506 350.452C888.297 352.852 885.752 355.109 882.872 357.222C879.991 359.334 876.822 361.159 873.365 362.695C869.812 364.328 865.923 365.576 861.697 366.44C857.472 367.401 852.911 367.881 848.013 367.881C840.043 367.881 832.697 366.729 825.975 364.424C819.349 362.119 813.635 358.902 808.833 354.773C804.032 350.644 800.287 345.746 797.598 340.081C794.909 334.319 793.565 328.077 793.565 321.355C793.565 312.712 795.245 305.078 798.606 298.452C801.967 291.73 807.009 286.208 813.731 281.887C819.781 277.95 827.223 274.973 836.058 272.957C844.988 270.844 855.215 269.788 866.739 269.788H889.065V260.569C889.065 256.92 888.489 253.655 887.337 250.774C886.185 247.797 884.456 245.252 882.151 243.14C879.751 240.931 876.726 239.25 873.077 238.098C869.524 236.85 865.346 236.226 860.545 236.226C856.32 236.226 852.671 236.754 849.598 237.81C846.525 238.77 844.028 240.163 842.107 241.987C840.379 243.62 839.083 245.588 838.218 247.893C837.45 250.198 837.066 252.743 837.066 255.527H797.022C797.022 248.901 798.462 242.611 801.343 236.658C804.32 230.704 808.641 225.47 814.307 220.957C819.877 216.444 826.695 212.891 834.761 210.298C842.924 207.609 852.238 206.265 862.706 206.265C872.116 206.265 880.855 207.417 888.921 209.722C897.084 212.026 904.142 215.435 910.096 219.949C916.049 224.462 920.707 230.176 924.068 237.09C927.429 243.908 929.109 251.83 929.109 260.857V327.693C929.109 336.047 929.638 342.961 930.694 348.435C931.75 353.909 933.287 358.614 935.303 362.551V365H894.683ZM856.512 336.912C860.545 336.912 864.29 336.431 867.747 335.471C871.204 334.511 874.325 333.263 877.11 331.726C879.895 330.19 882.295 328.461 884.312 326.541C886.329 324.524 887.913 322.507 889.065 320.491V293.699H868.611C862.369 293.699 857.04 294.323 852.623 295.571C848.205 296.724 844.604 298.356 841.819 300.469C839.035 302.677 836.97 305.318 835.625 308.391C834.281 311.368 833.609 314.633 833.609 318.186C833.609 320.971 834.089 323.564 835.049 325.964C836.106 328.269 837.594 330.238 839.515 331.87C841.435 333.407 843.788 334.655 846.573 335.615C849.454 336.479 852.767 336.912 856.512 336.912ZM974.483 365V209.146H1010.78L1013.23 230.752C1015.25 227.871 1017.46 225.23 1019.86 222.83C1022.26 220.429 1024.8 218.268 1027.49 216.348C1032.1 213.083 1037.14 210.586 1042.62 208.857C1048.09 207.129 1053.9 206.265 1060.04 206.265C1067.92 206.265 1075.12 207.417 1081.65 209.722C1088.18 212.026 1093.85 215.675 1098.65 220.669C1103.35 225.758 1107 232.288 1109.6 240.259C1112.28 248.133 1113.63 257.736 1113.63 269.067V365H1073.58V269.644C1073.58 263.498 1072.86 258.456 1071.42 254.519C1070.08 250.486 1068.11 247.317 1065.52 245.012C1062.93 242.708 1059.8 241.123 1056.16 240.259C1052.51 239.299 1048.38 238.818 1043.77 238.818C1039.93 238.818 1036.37 239.25 1033.11 240.115C1029.94 240.979 1027.11 242.275 1024.61 244.004C1022.59 245.252 1020.77 246.741 1019.14 248.469C1017.5 250.198 1016.02 252.118 1014.67 254.231V365H974.483ZM1220.65 335.903C1224.59 335.903 1228.33 335.327 1231.89 334.175C1235.44 333.022 1238.56 331.39 1241.25 329.277C1243.94 327.165 1246 324.62 1247.44 321.643C1248.98 318.666 1249.65 315.353 1249.46 311.704H1287.2C1287.39 319.771 1285.71 327.261 1282.16 334.175C1278.7 341.089 1273.95 347.043 1267.9 352.036C1261.85 357.03 1254.79 360.967 1246.72 363.848C1238.75 366.632 1230.3 368.025 1221.37 368.025C1209.27 368.025 1198.66 366.008 1189.54 361.975C1180.42 357.846 1172.83 352.228 1166.78 345.122C1160.63 338.016 1155.98 329.709 1152.81 320.203C1149.74 310.6 1148.2 300.325 1148.2 289.377V285.056C1148.2 274.109 1149.74 263.882 1152.81 254.375C1155.88 244.772 1160.49 236.418 1166.64 229.312C1172.78 222.205 1180.37 216.588 1189.4 212.458C1198.52 208.329 1209.08 206.265 1221.08 206.265C1230.69 206.265 1239.57 207.705 1247.73 210.586C1255.89 213.467 1262.95 217.5 1268.91 222.686C1274.76 227.967 1279.33 234.353 1282.59 241.843C1285.86 249.237 1287.39 257.544 1287.2 266.763H1249.46C1249.65 262.922 1249.08 259.272 1247.73 255.815C1246.39 252.358 1244.42 249.382 1241.83 246.885C1239.23 244.388 1236.11 242.419 1232.46 240.979C1228.81 239.443 1224.83 238.674 1220.51 238.674C1214.17 238.674 1208.94 239.971 1204.81 242.563C1200.68 245.156 1197.41 248.613 1195.01 252.935C1192.52 257.256 1190.74 262.201 1189.68 267.771C1188.72 273.341 1188.24 279.102 1188.24 285.056V289.377C1188.24 295.427 1188.72 301.285 1189.68 306.951C1190.64 312.52 1192.37 317.418 1194.87 321.643C1197.27 325.964 1200.53 329.421 1204.66 332.014C1208.89 334.607 1214.22 335.903 1220.65 335.903ZM1404.45 367.881C1392.45 367.881 1381.55 365.912 1371.75 361.975C1361.96 358.038 1353.56 352.66 1346.55 345.842C1339.54 339.12 1334.11 331.198 1330.27 322.075C1326.52 312.856 1324.65 303.014 1324.65 292.546V286.785C1324.65 274.877 1326.52 264.026 1330.27 254.231C1334.01 244.34 1339.25 235.841 1345.97 228.735C1352.69 221.629 1360.66 216.108 1369.88 212.17C1379.1 208.233 1389.13 206.265 1399.99 206.265C1411.22 206.265 1421.21 208.137 1429.95 211.882C1438.78 215.531 1446.27 220.717 1452.42 227.439C1458.47 234.161 1463.08 242.275 1466.25 251.782C1469.41 261.193 1471 271.612 1471 283.04V300.037H1365.27V300.469C1366.62 306.711 1368.34 311.752 1370.46 315.593C1372.57 319.338 1375.4 322.747 1378.96 325.82C1382.6 328.989 1386.78 331.438 1391.49 333.167C1396.19 334.895 1401.33 335.759 1406.9 335.759C1414.77 335.759 1422.41 334.271 1429.8 331.294C1437.2 328.317 1443.2 323.852 1447.81 317.898L1467.83 339.504C1462.74 346.707 1454.67 353.236 1443.63 359.094C1432.59 364.952 1419.53 367.881 1404.45 367.881ZM1399.7 238.674C1395.18 238.674 1391.06 239.491 1387.31 241.123C1383.56 242.66 1380.3 244.916 1377.52 247.893C1374.63 250.87 1372.23 254.423 1370.31 258.552C1368.39 262.681 1366.95 267.291 1365.99 272.38H1431.68V269.211C1431.68 264.986 1430.91 261.001 1429.37 257.256C1427.83 253.511 1425.72 250.246 1423.03 247.461C1420.34 244.772 1417.03 242.66 1413.09 241.123C1409.25 239.491 1404.79 238.674 1399.7 238.674Z" fill="white"/>
<g clip-path="url(#clip0_27_3)">
<circle cx="1824.5" cy="320.5" r="184" stroke="url(#paint0_linear_27_3)" stroke-width="35"/>
<path fill-rule="evenodd" clip-rule="evenodd" d="M1990.38 336C1983.03 421.166 1911.57 488 1824.5 488C1737.43 488 1665.97 421.166 1658.62 336H1623.51C1630.95 440.517 1718.09 523 1824.5 523C1930.91 523 2018.05 440.517 2025.49 336H1990.38ZM1658.71 306C1666.53 221.312 1737.77 155 1824.5 155C1911.23 155 1982.47 221.312 1990.29 306H2025.41C2017.5 201.957 1930.57 120 1824.5 120C1718.43 120 1631.5 201.957 1623.59 306H1658.71Z" fill="#999999"/>
<path fill-rule="evenodd" clip-rule="evenodd" d="M1987.42 336C1971.53 411.4 1904.63 468 1824.5 468C1744.37 468 1677.47 411.4 1661.58 336H1625.94C1642.31 430.848 1724.98 503 1824.5 503C1924.02 503 2006.69 430.848 2023.06 336H1987.42ZM1658.06 306C1658.02 304.505 1658 303.005 1658 301.5C1658 209.545 1732.54 135 1824.5 135C1916.46 135 1991 209.545 1991 301.5C1991 303.005 1990.98 304.505 1990.94 306H2025.95C2025.98 304.504 2026 303.004 2026 301.5C2026 190.215 1935.79 100 1824.5 100C1713.21 100 1623 190.215 1623 301.5C1623 303.004 1623.02 304.504 1623.05 306H1658.06Z" fill="url(#paint1_linear_27_3)"/>
<path d="M1728.01 355.115L1774.04 320.63C1780.42 315.9 1785.1 311.06 1788.07 306.11C1791.04 301.05 1792.52 295.605 1792.52 289.775C1792.52 282.405 1790.43 276.63 1786.25 272.45C1782.07 268.16 1776.3 266.015 1768.93 266.015C1762 266.015 1756.33 268.16 1751.93 272.45C1747.53 276.74 1744.45 283.01 1742.69 291.26H1724.54C1724.98 282.35 1727.18 274.705 1731.14 268.325C1735.21 261.835 1740.49 256.885 1746.98 253.475C1753.58 250.065 1760.9 248.36 1768.93 248.36C1777.51 248.36 1784.93 250.12 1791.2 253.64C1797.58 257.05 1802.53 261.835 1806.05 267.995C1809.57 274.155 1811.33 281.415 1811.33 289.775C1811.33 298.355 1809.13 306.33 1804.73 313.7C1800.33 321.07 1793.68 328 1784.77 334.49L1744.01 363.695V365.345H1808.69V383H1728.01V355.115ZM1840.73 383V251H1877.69C1895.51 251 1908.88 256.555 1917.79 267.665C1926.81 278.665 1931.32 295.11 1931.32 317C1931.32 338.89 1926.81 355.39 1917.79 366.5C1908.88 377.5 1895.51 383 1877.69 383H1840.73ZM1859.54 365.345H1877.69C1889.35 365.345 1898.04 361.385 1903.76 353.465C1909.59 345.435 1912.51 333.28 1912.51 317C1912.51 300.61 1909.59 288.455 1903.76 280.535C1898.04 272.615 1889.35 268.655 1877.69 268.655H1859.54V365.345Z" fill="url(#paint2_linear_27_3)"/>
<path d="M1682.5 68.5H1711.5V131.385L1759.95 95.3154L1776.58 120.573L1722.28 161L1776.58 201.427L1759.95 226.684L1711.5 190.615V253.5H1682.5V190.615L1634.05 226.684L1617.42 201.427L1671.72 161L1617.42 120.573L1634.05 95.3154L1682.5 131.385V68.5Z" fill="#405758"/>
<path d="M1682.5 70H1711.5V129.146L1759.95 95.221L1776.58 118.976L1722.28 157L1776.58 195.023L1759.95 218.779L1711.5 184.854V244H1682.5V184.854L1634.05 218.779L1617.42 195.023L1671.72 157L1617.42 118.977L1634.05 95.221L1682.5 129.146V70Z" fill="url(#paint3_linear_27_3)"/>
</g>
<defs>
<linearGradient id="paint0_linear_27_3" x1="1824.5" y1="119" x2="1824.5" y2="522" gradientUnits="userSpaceOnUse">
<stop stop-color="#999999" stop-opacity="0"/>
<stop offset="0.25" stop-color="#999999" stop-opacity="0"/>
<stop offset="0.25" stop-color="#999999"/>
<stop offset="0.5" stop-color="#999999"/>
<stop offset="0.501" stop-color="#333333" stop-opacity="0"/>
</linearGradient>
<linearGradient id="paint1_linear_27_3" x1="1824.5" y1="100" x2="1824.5" y2="503" gradientUnits="userSpaceOnUse">
<stop offset="0.54" stop-color="white"/>
<stop offset="1" stop-color="#999999"/>
</linearGradient>
<linearGradient id="paint2_linear_27_3" x1="1825.39" y1="253" x2="1825.39" y2="381.889" gradientUnits="userSpaceOnUse">
<stop offset="0.62586" stop-color="white"/>
<stop offset="1" stop-color="#999999"/>
</linearGradient>
<linearGradient id="paint3_linear_27_3" x1="1697" y1="70" x2="1697" y2="244" gradientUnits="userSpaceOnUse">
<stop offset="0.31" stop-color="#71BCBE"/>
<stop offset="0.52" stop-color="#71BCBE"/>
<stop offset="0.955" stop-color="#355758"/>
</linearGradient>
<clipPath id="clip0_27_3">
<rect width="512" height="512" fill="white" transform="translate(1567 35)"/>
</clipPath>
</defs>
</svg>
